# xmcd
#
# Track frame offsets:
#	225
#	13272
#	28621
#	40864
#	53580
#	63576
#	76245
#	97398
#	110291
#	119801
#	134265
#	145876
#	155492
#	167337
#	177304
#	188054
#	199079
#	209969
#	219798
#	229984
#
# Disc length: 3232 seconds
#
# Revision: 1
# Processed by: cddbd v1.5.2PL0 Copyright (c) Steve Scherf et al.
# Submitted via: audiograbber 1.83.01
#
DISCID=260c9d14
DTITLE=Dvorana slavy - Dvorana slavy 1
DYEAR=1900
DGENRE=Country
TTITLE0=Hank Williams - Jambalaya (On the Bayou)
TTITLE1=Jim Reeves - The Blizzard
TTITLE2=Bobby Bare - 500 Miles Away From Home
TTITLE3=Stonewal Jackson - B.J The D.J
TTITLE4=George Hamilton - Abilene
TTITLE5=Hank Snow - Golden Rocket
TTITLE6=Marty Robbins - El Paso
TTITLE7=The Browns - The Three Bells
TTITLE8=Webb Pierce - In The Jailhouse Now
TTITLE9=Ernest Tubb - Soldier's Last Letter
TTITLE10=Ray Price - Crazy Arms
TTITLE11=Bill Monroe - Blue Moon Of Kentucky
TTITLE12=Johny Horton - When It's Springtime In Alaska
TTITLE13=Johny Cash - Hey Porter
TTITLE14=Leroy Van Dyke - Walk On Bye
TTITLE15=Buck Owens - Together Again
TTITLE16=George Jones - Will The Circle Be Unbroken
TTITLE17=Hank Locklin - Happy Journey
TTITLE18=Dave Dudley - Six Days On The Road
TTITLE19=Hank Williams - I'm So Lonesome I Could Cry
EXTD=Compilation disc: split artist and track name
EXTT0=
EXTT1=
EXTT2=
EXTT3=
EXTT4=
EXTT5=
EXTT6=
EXTT7=
EXTT8=
EXTT9=
EXTT10=
EXTT11=
EXTT12=
EXTT13=
EXTT14=
EXTT15=
EXTT16=
EXTT17=
EXTT18=
EXTT19=
PLAYORDER=
